<?xml version="1.0" encoding="UTF-8" standalone="no"?>
<svg
   width="500"
   height="500"
   version="1.1"
   id="svg18"
   sodipodi:docname="logo.svg"
   viewBox="0 0 500 500"
   inkscape:version="1.2.2 (732a01da63, 2022-12-09)"
   inkscape:export-filename="logo.png"
   inkscape:export-xdpi="96"
   inkscape:export-ydpi="96"
   xmlns:inkscape="http://www.inkscape.org/namespaces/inkscape"
   xmlns:sodipodi="http://sodipodi.sourceforge.net/DTD/sodipodi-0.dtd"
   xmlns="http://www.w3.org/2000/svg"
   xmlns:svg="http://www.w3.org/2000/svg"
   xmlns:bx="https://boxy-svg.com">
  <sodipodi:namedview
     id="namedview20"
     pagecolor="#ffffff"
     bordercolor="#000000"
     borderopacity="0.25"
     inkscape:showpageshadow="2"
     inkscape:pageopacity="0.0"
     inkscape:pagecheckerboard="0"
     inkscape:deskcolor="#d1d1d1"
     showgrid="false"
     inkscape:zoom="0.84677419"
     inkscape:cx="255.67619"
     inkscape:cy="256.26667"
     inkscape:window-width="1360"
     inkscape:window-height="705"
     inkscape:window-x="-8"
     inkscape:window-y="-8"
     inkscape:window-maximized="1"
     inkscape:current-layer="svg18" />
  <defs
     id="defs2">
    <bx:grid
       x="0"
       y="0"
       width="340"
       height="270" />
  </defs>
  <g
     aria-label="IBFE"
     id="text12"
     style="font-size:250.827px;font-family:Impact;white-space:pre;fill:#333333;stroke-width:1.67218">
    <path
       d="m 93.557663,137.19411 v 198.2856 H 41.996059 v -198.2856 z"
       style="word-spacing:0px;fill:#b72424"
       id="path381" />
    <path
       d="m 114.25579,237.10401 h 51.43913 q 24.37235,0 36.86471,3.7967 12.61483,3.7967 20.3307,15.43174 7.71587,11.51257 7.71587,37.23213 0,17.39133 -5.51134,24.24988 -5.38886,6.85855 -21.43297,10.53277 17.88122,4.04165 24.24988,13.47215 6.36865,9.30804 6.36865,28.65895 v 18.37112 q 0,20.08575 -4.65401,29.76121 -4.53155,9.67545 -14.57442,13.2272 -10.04288,3.55175 -41.15131,3.55175 h -59.64489 z m 51.5616,33.92533 v 44.09069 q 3.3068,-0.12248 5.14391,-0.12248 7.5934,0 9.67546,-3.67422 2.08206,-3.7967 2.08206,-21.43297 0,-9.30803 -1.71464,-12.98226 -1.71464,-3.7967 -4.53154,-4.77649 -2.69443,-0.97979 -10.65525,-1.10227 z m 0,74.95416 v 55.48078 q 10.9002,-0.36742 13.83958,-3.42927 3.06185,-3.06186 3.06185,-15.06432 V 364.4771 q 0,-12.73731 -2.69443,-15.43174 -2.69443,-2.69443 -14.207,-3.06186 z"
       style="word-spacing:0px;fill:#1a4e2e"
       id="path383" />
    <path
       d="m 252.77401,235.33495 h 87.32405 v 39.68161 h -35.76244 v 37.59956 h 31.84327 v 37.72202 h -31.84327 v 83.2824 h -51.56161 z"
       style="word-spacing:0px;fill:#b72424"
       id="path385" />
    <path
       d="m 352.59042,104.9891 h 85.97683 v 39.68162 h -34.41523 v 37.59955 h 32.2107 v 37.72203 h -32.2107 v 43.60079 h 37.84451 v 39.68161 h -89.40611 z"
       style="word-spacing:0px;fill:#1a4e2e"
       id="path387" />
  </g>
  <path
     style="fill:#2fae56;stroke:none;stroke-width:1.47474"
     d="m 429.11052,357.54724 c -3.65146,9.34837 -10.90127,12.70488 -18.54632,18.3664 -14.76508,10.93666 -29.11429,22.18597 -44.86745,31.7703 -30.00798,18.25579 -62.75603,34.4086 -97.33276,41.78524 -31.82338,6.7897 -68.33792,6.16589 -100.28223,0.61792 -16.32241,-2.83445 -32.08737,-7.57426 -47.19164,-14.34331 -7.99161,-3.58066 -15.55555,-7.14806 -22.964627,-11.41005 0,0 -18.215981,-13.58382 -25.952461,-19.57863 -31.7172,-24.58095 -50.09687,-60.73122 -67.5872695,-95.87425 -9.72295,13.64724 -1.02052,32.06525 4.4242099,45.71691 15.2900996,38.34025 38.5658996,73.88441 71.0381696,99.85308 79.855628,63.86356 183.982508,53.81174 271.101218,11.35549 18.85749,-9.19057 35.93939,-21.34094 53.0906,-33.34532 8.52694,-5.96827 16.94327,-13.33901 26.5453,-17.39897 0.009,14.40968 4.57463,27.35936 7.68486,41.29269 0.85535,3.83727 2.43479,12.33471 8.26591,10.68891 4.36375,-1.22994 4.67197,-7.03303 4.42127,-10.68891 0,0 5.82669,-25.62506 10.6771,-38.02171 7.39434,-18.90026 19.63025,-47.83463 19.63025,-47.83463 4.73244,-7.54919 8.60215,-19.51964 11.13281,-28.19406 3.12202,-10.7007 8.40158,-26.83877 7.50052,-37.37872 -0.8642,-10.08279 -9.02246,-5.47571 -14.74739,-13.74162 -31.88533,7.31028 -63.72789,21.35717 -94.38328,32.81294 -8.91332,3.33143 -17.71456,6.93864 -26.5453,10.47212 -3.51872,1.40837 -8.16563,2.32124 -10.90864,5.11439 -2.80643,2.85804 -2.19294,6.98141 -1.73724,10.5901 0.93498,7.40024 1.68857,21.7288 11.23456,23.42328 7.3442,1.30366 18.02278,-3.36831 25.00714,-5.42999 13.61184,-4.01719 27.61891,-6.76758 41.29269,-10.6196 z"
     id="path14" />
</svg>
