<svg width="339" height="310" xmlns="http://www.w3.org/2000/svg" xmlns:bx="https://boxy-svg.com">
  <defs>
    <bx:grid x="0" y="0" width="340" height="270"></bx:grid>
  </defs>
  <g>
    <text style="fill: rgb(51, 51, 51); font-family: Impact; font-size: 150px; white-space: pre;" y="-33.235"><tspan x="28.758" y="194.757" dy="-33.855" style="fill: rgb(183, 36, 36); font-size: 150px; word-spacing: 0px;">I</tspan><tspan dy="61.867" style="fill: rgb(26, 78, 46); font-size: 150px; word-spacing: 0px;">B</tspan><tspan dy="13.773" style="fill: rgb(183, 36, 36); font-size: 150px; word-spacing: 0px;">F</tspan><tspan dy="-85.012" style="fill: rgb(26, 78, 46); font-size: 150px; word-spacing: 0px;">E</tspan></text>
    <path style="stroke: none; fill: rgb(47, 174, 86);" d="M 291.931 171.936 C 289.455 178.275 284.539 180.551 279.355 184.39 C 269.343 191.806 259.613 199.434 248.931 205.933 C 228.583 218.312 206.377 229.265 182.931 234.267 C 161.352 238.871 136.592 238.448 114.931 234.686 C 103.863 232.764 93.173 229.55 82.931 224.96 C 77.512 222.532 72.383 220.113 67.359 217.223 C 67.359 217.223 55.007 208.012 49.761 203.947 C 28.254 187.279 15.791 162.766 3.931 138.936 C -2.662 148.19 3.239 160.679 6.931 169.936 C 17.299 195.934 33.082 220.036 55.101 237.645 C 109.25 280.95 179.857 274.134 238.931 245.345 C 251.718 239.113 263.301 230.874 274.931 222.734 C 280.713 218.687 286.42 213.689 292.931 210.936 C 292.937 220.707 296.033 229.488 298.142 238.936 C 298.722 241.538 299.793 247.3 303.747 246.184 C 306.706 245.35 306.915 241.415 306.745 238.936 C 306.745 238.936 310.696 221.56 313.985 213.154 C 318.999 200.338 327.296 180.718 327.296 180.718 C 330.505 175.599 333.129 167.482 334.845 161.6 C 336.962 154.344 340.542 143.401 339.931 136.254 C 339.345 129.417 333.813 132.541 329.931 126.936 C 308.31 131.893 286.718 141.418 265.931 149.186 C 259.887 151.445 253.919 153.891 247.931 156.287 C 245.545 157.242 242.394 157.861 240.534 159.755 C 238.631 161.693 239.047 164.489 239.356 166.936 C 239.99 171.954 240.501 181.67 246.974 182.819 C 251.954 183.703 259.195 180.535 263.931 179.137 C 273.161 176.413 282.659 174.548 291.931 171.936 Z"></path>
  </g>
</svg>