<svg xmlns="http://www.w3.org/2000/svg" xmlns:bx="https://boxy-svg.com" viewBox="8.47 2.83 897.34 970.17">
    <defs>
      <linearGradient id="color-0" gradientUnits="userSpaceOnUse" gradientTransform="matrix(1, 0, 0, 1, -105.048135, 157.812607)" bx:pinned="true">
        <stop style="stop-color: rgb(235, 55, 85)"/>
      </linearGradient>
    </defs>
    <path fill="#010101" opacity="1.000000" stroke="none" d="M 811.658 339.584 C 824.263 342.601 830.861 353.072 830.779 366.374 C 830.627 391.037 830.744 415.701 830.736 440.365 C 830.734 445.474 827.272 448.526 822.283 447.17 C 818.684 446.193 814.878 444.821 811.995 442.564 C 796.161 430.163 773.665 433.599 762.337 448.771 C 754.249 459.602 753.006 471.39 758.102 483.546 C 762.98 495.186 771.897 502.495 784.696 504.214 C 794.666 505.553 803.569 503.017 811.907 497.132 C 815.335 494.711 820.069 493.844 824.353 493.013 C 828.795 492.151 830.913 494.191 830.837 499.188 C 830.582 515.849 830.786 532.516 830.723 549.181 C 830.687 559.006 830.684 568.84 830.298 578.655 C 829.837 590.369 819.453 600.349 807.823 600.6 C 780.839 601.182 753.835 600.822 726.839 600.909 C 722.973 600.922 722.182 597.644 722.496 595.555 C 723.162 591.138 724.055 586.195 726.578 582.719 C 735.027 571.078 737.429 558.889 731.46 545.713 C 725.855 533.343 715.697 526.434 702.317 525.493 C 677.238 523.731 659.912 547.391 666.461 568.51 C 667.993 573.449 671.093 577.895 673.381 582.611 C 674.538 584.995 675.809 587.393 676.483 589.929 C 678.581 597.821 676.13 600.886 668.053 600.886 C 645.889 600.886 623.708 600.374 601.566 601.071 C 587.411 601.517 576.615 597.43 570.045 583.659 C 569.681 578.931 569 574.966 568.983 570.997 C 568.881 546.842 568.815 522.684 569.031 498.53 C 569.071 493.992 567.308 492.028 563.296 493.02 C 558.575 494.187 553.519 495.437 549.584 498.095 C 533.961 508.65 512.873 505.873 501.855 491.251 C 490.139 475.701 492.897 454.125 508.118 442.26 C 519.849 433.115 536.35 432.824 548.688 440.912 C 552.998 443.737 558.043 445.743 563.029 447.134 C 566.672 448.15 569.068 446.312 569.02 441.646 C 568.812 421.657 568.858 401.664 568.974 381.674 C 569.022 373.373 569.567 364.626 569.936 355.989 C 573.529 347.593 578.79 341.989 588.103 339.824 C 592.675 339.618 596.798 339.095 600.922 339.081 C 624.225 339 647.529 339.056 670.833 339.031 C 675.913 339.026 679.328 335.205 677.738 330.872 C 675.979 326.076 674.8 321.078 670.924 317.056 C 668.45 314.49 666.904 310.606 665.989 307.044 C 663.71 298.174 665.558 290.049 669.737 281.668 C 678.634 263.829 701.128 259.912 715.794 267.798 C 730.471 275.689 737.473 290.184 732.316 307.881 C 730.479 314.186 726.35 319.832 723.209 325.747 C 718.914 333.833 721.913 339.042 730.913 339.042 C 753.884 339.042 776.855 339.016 799.826 339.066 C 803.77 339.075 807.714 339.403 811.658 339.584 Z"/>
    <path fill="#143C02" opacity="1.000000" stroke="none" d=" M811.630371,339.267639 C807.713745,339.403137 803.770020,339.074707 799.825623,339.066193 C776.854797,339.016479 753.883789,339.042297 730.912842,339.041718 C721.912903,339.041504 718.913940,333.832733 723.208557,325.746887 C726.350342,319.831665 730.479248,314.186310 732.316467,307.881104 C737.472839,290.184143 730.471313,275.688782 715.794128,267.797668 C701.127502,259.912201 678.633545,263.828674 669.737488,281.667633 C665.557800,290.048889 663.709900,298.174255 665.988525,307.044434 C666.903564,310.606445 668.450195,314.489807 670.923889,317.056305 C674.799683,321.077576 675.979004,326.075836 677.738403,330.872498 C679.327576,335.204803 675.912903,339.025848 670.833313,339.031189 C647.529419,339.055603 624.225464,339.000305 600.921814,339.080780 C596.797668,339.095001 592.675293,339.617950 588.114258,339.479309 C579.557495,335.705078 573.041016,330.667114 569.921509,321.668335 C570.091919,303.214142 570.191040,285.230194 570.250305,267.246063 C570.284302,256.920929 570.095337,246.590698 570.411743,236.275208 C570.463196,234.597656 572.814087,231.478897 573.775208,231.600922 C578.087463,232.148361 583.101990,232.526245 586.371216,234.965179 C598.254822,243.830795 610.653320,246.508148 624.319336,240.229630 C647.594116,229.536621 652.164124,199.368332 632.894714,181.930344 C620.423157,170.644135 601.646484,170.912262 590.567749,178.593826 C586.640869,181.316589 581.887695,183.195328 577.238831,184.440384 C571.546021,185.965073 570.278992,184.500198 570.252441,178.487076 C570.128357,150.349365 569.997620,122.211693 569.869202,94.074005 C574.723083,82.511948 583.388855,77.126747 595.952026,77.220116 C620.612488,77.403389 645.275330,77.274445 669.937195,77.268532 C675.902527,77.267097 677.881897,75.153748 676.377319,69.379829 C675.439270,65.779579 673.926147,62.095242 671.781494,59.081734 C658.995972,41.116219 663.653687,17.347385 682.652344,7.140965 C703.878174,-4.261954 728.611023,8.152349 733.388428,30.222603 C735.832947,41.515476 732.859375,51.023552 726.370850,60.174019 C724.096069,63.382053 723.010620,67.619904 722.093262,71.553383 C721.112732,75.757668 723.320068,77.372406 727.701538,77.344353 C751.862549,77.189629 776.024963,77.268715 800.186951,77.273758 C802.186035,77.274178 804.191650,77.224594 806.183167,77.360382 C820.667419,78.347954 830.116455,88.077248 830.210266,102.629471 C830.372498,127.790215 830.259033,152.952713 830.264038,178.114487 C830.265259,184.200821 833.487793,186.847809 839.447083,184.955154 C843.461670,183.680130 847.467224,181.878647 850.955811,179.536591 C862.632324,171.697495 877.895020,171.312317 890.045410,178.978622 C901.506531,186.210037 907.583740,200.052124 905.353638,213.846222 C901.062927,240.386261 870.992004,252.017883 849.458984,235.563889 C847.169617,233.814545 844.358215,232.472626 841.578247,231.692291 C832.791809,229.225998 830.263062,231.277740 830.263062,240.325424 C830.263062,262.654419 829.718689,285.001312 830.452454,307.306152 C830.950073,322.432220 826.080078,333.274994 811.630371,339.267639 z"/>
    <path opacity="1.000000" stroke="none" d="M 569.575 93.902 C 569.998 122.212 570.128 150.349 570.252 178.487 C 570.279 184.5 571.546 185.965 577.239 184.44 C 581.888 183.195 586.641 181.317 590.568 178.594 C 601.646 170.912 620.423 170.644 632.895 181.93 C 652.164 199.368 647.594 229.537 624.319 240.23 C 610.653 246.508 598.255 243.831 586.371 234.965 C 583.102 232.526 578.087 232.148 573.775 231.601 C 572.814 231.479 570.463 234.598 570.412 236.275 C 570.095 246.591 570.284 256.921 570.25 267.246 C 570.191 285.23 570.092 303.214 569.665 321.864 C 565.752 330.78 559.698 336.344 550.731 339.291 C 523.93 339.305 497.609 339.308 471.289 339.311 C 463.44 339.312 462.274 340.529 463.063 348.298 C 463.225 349.896 463.75 351.527 464.435 352.99 C 467.359 359.232 470.862 365.242 473.313 371.657 C 478.692 385.734 469.422 403.492 457.243 410.473 C 448.727 415.355 439.638 415.971 430.173 413.613 C 431.937 399.595 431.106 386.209 425.649 373.55 C 422.662 366.623 417.982 360.732 414.583 353.757 C 419.372 344.314 417.223 339.139 407.396 339.251 C 405.912 339.268 404.214 340.125 402.404 340.096 C 398.647 337.208 395.435 333.824 392.032 331.106 C 391.471 331.719 391.123 331.923 391.064 332.191 C 390.527 334.613 390.473 337.262 389.546 339.615 C 382.846 339.557 376.141 339.36 369.669 338.987 C 366.112 323.792 357.943 311.843 348.01 300.443 C 346.56 304.503 345.934 307.86 344.281 310.598 C 337.414 321.978 325.674 326.329 314.103 330.832 C 308.149 321.779 308.821 311.572 308.86 301.429 C 308.941 280.269 308.879 259.108 308.888 237.948 C 308.891 231.964 310.977 229.679 316.733 231.172 C 321.556 232.424 326.356 234.718 330.481 237.549 C 350.926 251.587 378.77 238.524 383.362 216.062 C 386.249 201.938 382.067 190.245 371.323 181.32 C 361.123 172.848 349.221 170.969 336.678 176.011 C 333.947 177.109 331.51 178.934 328.922 180.398 C 326.623 181.697 324.424 183.288 321.972 184.178 C 311.74 187.891 308.885 185.822 308.886 175.015 C 308.89 151.189 308.821 127.362 308.925 103.536 C 308.978 91.125 315.424 82.169 326.58 78.713 C 328.602 78.086 330.82 77.855 332.949 77.849 C 359.108 77.785 385.268 77.901 411.425 77.683 C 415.594 77.649 417.368 79.829 416.865 82.895 C 416.113 87.473 415.122 92.616 412.444 96.173 C 396.167 117.798 407.564 147.793 433.353 152.726 C 447.147 155.364 461.795 148.827 468.778 137.439 C 477.505 123.209 476.16 109.835 467.219 96.901 C 464.018 92.269 461.746 87.436 462.792 81.614 C 463.268 78.963 464.631 77.724 467.574 77.738 C 494.565 77.859 521.558 77.738 548.549 77.958 C 555.839 78.017 561.397 81.995 565.589 87.818 C 566.943 89.7 568.057 91.755 569.575 93.902 Z" fill="#7ED957"/>
    <path opacity="1.000000" d="M 476.664 675.602 C 472.747 675.737 468.803 675.409 464.859 675.4 C 441.888 675.35 418.917 675.376 395.946 675.376 C 386.946 675.376 383.947 670.167 388.242 662.081 C 391.384 656.166 395.512 650.52 397.35 644.215 C 402.506 626.518 395.504 612.023 380.827 604.132 C 366.161 596.246 343.667 600.79 334.771 618.629 C 330.591 627.01 329.495 634.006 331.774 642.876 C 332.689 646.438 335.778 650.397 337.713 653.39 C 340.962 658.415 341.137 663.915 342.897 668.712 C 344.486 673.044 340.946 675.36 335.866 675.365 C 312.563 675.39 289.259 675.334 265.955 675.415 C 261.831 675.429 257.708 675.952 253.147 675.813 C 244.591 672.039 238.074 667.001 234.955 658.002 C 235.125 639.548 235.224 621.564 235.283 603.58 C 235.317 593.255 234.788 581.987 235.104 571.671 C 235.155 569.994 236.206 567.703 237.103 567.338 C 238.48 566.778 239.005 566.723 241.116 567.396 C 244.766 568.56 250.94 570.933 253.383 572.144 C 267.546 579.167 275.255 582.199 287.728 578.299 C 312.173 570.655 318.703 535.984 299.434 518.546 C 286.962 507.26 267.998 508.47 256.919 516.152 C 252.992 518.875 249.493 520.304 244.844 521.549 C 239.151 523.074 235.071 520.834 235.045 514.821 C 234.921 486.683 235.031 458.546 234.902 430.408 C 239.756 418.846 248.422 413.461 260.985 413.554 C 285.646 413.737 310.308 413.608 334.97 413.603 C 340.936 413.601 342.915 411.488 341.41 405.714 C 340.472 402.114 338.959 398.429 336.815 395.416 C 324.029 377.45 328.687 353.681 347.686 343.475 C 368.911 332.072 393.644 344.486 398.422 366.557 C 400.866 377.849 397.893 387.358 391.404 396.508 C 389.129 399.716 388.044 403.954 387.126 407.887 C 386.146 412.092 388.353 413.706 392.735 413.678 C 416.896 413.524 441.058 413.603 465.22 413.608 C 467.219 413.608 469.225 413.559 471.216 413.694 C 485.701 414.682 495.15 424.411 495.243 438.963 C 495.406 464.124 495.292 489.287 495.297 514.449 C 495.298 520.535 498.521 523.182 504.48 521.289 C 508.495 520.014 512.5 518.213 515.989 515.871 C 527.665 508.032 542.928 507.646 555.079 515.313 C 566.54 522.544 572.617 536.386 570.387 550.18 C 566.096 576.72 536.025 588.352 514.492 571.898 C 512.203 570.149 509.391 568.807 506.611 568.026 C 497.825 565.56 495.296 567.612 495.296 576.659 C 495.296 598.988 494.752 621.335 495.486 643.64 C 495.983 658.766 491.113 669.609 476.664 675.602 Z" style="fill: url(#color-0); stroke: url(#color-0); transform-origin: 402.873px 507.499px;" transform="matrix(-1, 0, 0, -1, -0.000061035156, 0)"/>
    <path fill="#B7FF98" opacity="1.000000" stroke="none" d="M 8.469 973 C 9.264 959.625 10.566 946.253 11.781 932.873 C 12.922 920.317 14.346 907.771 14.985 895.188 C 16.434 866.63 26.725 842.711 50.22 825.357 C 60.109 818.053 71.713 814.451 82.989 810.147 C 101.412 803.114 119.853 796.13 138.288 789.126 C 148.645 785.191 159.003 781.259 169.744 777.553 C 170.685 778.58 171.088 779.574 171.822 780.149 C 191.774 795.793 211.728 811.437 231.834 826.881 C 232.865 827.673 235.911 827.385 236.898 826.435 C 242.284 821.253 247.184 815.568 252.525 810.335 C 255.62 807.302 259.229 804.793 262.717 802.442 C 264.313 808.2 269.324 824.627 269.752 825.56 C 269.708 826.507 269.814 826.698 269.838 827.256 C 269.757 827.482 269.975 828.282 269.853 828.527 C 269.736 829.132 268.566 837.134 268.256 838.461 C 267.851 840.225 265.13 858.045 264.137 865.108 C 261.159 886.291 258.172 907.472 255.198 928.656 C 253.123 943.436 251.065 958.218 249 973 C 168.979 973 88.958 973 8.469 973 Z" style=""/>
    <path fill="#153C02" opacity="1.000000" stroke="none" d=" M413.431763,552.404358 C409.250366,553.038574 407.407013,555.364929 407.209625,559.694336 C406.929596,565.835632 406.083405,571.951416 405.454987,578.075623 C405.424164,578.375793 405.162170,578.652222 404.839355,579.253418 C401.102661,579.253418 397.200195,579.253418 392.768707,579.253418 C391.504333,569.978699 390.224976,560.775879 388.999451,551.565857 C386.629333,533.754089 384.348846,515.929932 381.814240,498.141785 C381.629608,496.846283 379.867523,495.065338 378.544403,494.751526 C364.325378,491.378967 349.960663,488.596039 335.803345,484.993286 C307.667938,477.833344 280.296173,468.623291 254.692398,454.536102 C240.076797,446.494598 226.290146,437.528107 214.739319,425.391479 C213.496872,424.086029 212.369263,422.671295 210.707077,420.751282 C210.179199,426.854919 210.352188,432.495331 209.108170,437.803711 C205.403061,453.614105 201.604050,469.432007 196.968307,484.986633 C192.237442,500.860504 185.873917,516.258179 181.401825,532.194458 C179.055054,540.557190 179.143356,549.618713 178.289886,558.380005 C177.628571,565.168640 177.212250,571.981079 176.687607,578.775513 C168.668076,580.880188 167.637146,580.144836 167.300003,572.091431 C167.244263,570.759949 167.159561,569.427734 167.162125,568.095947 C167.183609,556.920044 168.123764,554.906494 152.480560,551.967834 C150.049469,521.638611 148.321045,491.403046 145.774384,461.236542 C144.649689,447.914001 148.401382,435.971252 153.203033,424.098358 C159.257919,409.126648 168.213821,395.815186 177.408112,382.639038 C179.517044,379.616730 180.516251,375.842377 182.436752,372.662048 C187.572754,364.156982 195.933746,359.809540 204.641663,355.956055 C219.704483,349.290375 235.771973,347.074036 251.909134,345.033051 C272.838074,342.385956 293.511932,338.533081 313.732239,330.960968 C325.674377,326.329376 337.414307,321.977783 344.281494,310.598053 C345.933563,307.860291 346.559540,304.503265 348.010376,300.443329 C357.943146,311.843262 366.111633,323.792267 369.514374,339.330231 C369.626099,343.349884 370.185120,346.716827 369.644135,349.896606 C368.891052,354.322876 370.808533,354.788361 374.310699,354.182037 C382.717438,352.726654 387.539795,348.110199 389.540588,339.476288 C390.041321,337.046265 390.527313,334.613007 391.063751,332.190887 C391.123077,331.923004 391.470795,331.718964 392.031708,331.106354 C395.435089,333.824036 398.863281,336.561493 402.699280,339.733215 C407.038940,344.624176 410.970795,349.080902 414.902649,353.537628 C418.522461,360.192261 422.662292,366.622681 425.648895,373.550293 C431.106232,386.208740 431.936768,399.595367 430.024414,413.982666 C428.206238,421.013092 426.479919,427.238739 424.783295,433.472443 C424.221863,435.535248 423.384674,437.600739 423.276794,439.696045 C422.755249,449.824524 422.433899,459.963409 422.051422,470.098969 C421.298981,490.037903 420.572937,509.977783 419.793793,529.915649 C419.516907,537.000732 419.117554,544.080994 418.793335,550.768005 C416.739807,551.394714 415.085785,551.899536 413.431763,552.404358 z"/>
    <path fill="#7FD958" opacity="1.000000" stroke="none" d="M 401.263 777.532 C 392.703 784.846 383.981 791.93 375.16 798.888 C 363.605 808.003 351.897 816.925 340.428 826.145 C 337.604 828.416 335.701 828.457 333.272 825.844 C 326.835 818.921 320.291 812.097 313.72 805.301 C 312.48 804.019 310.921 803.046 309.058 801.553 C 308.432 800.552 308.447 799.75 308.054 799.329 C 301.519 792.322 294.934 785.362 288.357 778.393 C 286.176 776.082 284.166 776.998 282.365 778.853 C 278.786 782.538 275.129 786.166 271.803 790.072 C 268.544 793.899 265.863 798.559 262.813 802.563 C 259.435 805.309 255.62 807.302 252.525 810.335 C 247.184 815.568 242.284 821.253 236.898 826.435 C 235.911 827.385 232.865 827.673 231.834 826.881 C 211.728 811.437 191.774 795.793 171.822 780.149 C 171.088 779.574 170.685 778.58 170.086 777.445 C 186.692 762.08 203.332 747.044 220.005 732.045 C 220.956 731.189 222.178 730.635 223.852 730.177 C 244.754 745.514 265.079 760.615 285.605 775.866 C 306.162 760.478 326.582 745.193 347.001 729.908 C 348.307 730.518 349.858 730.857 350.882 731.779 C 367.647 746.891 384.345 762.077 401.263 777.532 Z"/>
    <path fill="#FEC6B0" opacity="1.000000" stroke="none" d="M 347.433 729.908 C 327.02 745.654 306.162 760.478 285.605 775.866 C 265.079 760.615 244.316 746.67 223.774 731.304 C 223.588 724.079 224.204 714.21 224.268 706.79 C 228.048 708.275 231.756 711.796 235.382 713.949 C 247.818 721.336 260.747 727.793 275.035 730.312 C 284.44 731.971 293.993 731.671 303.465 728.481 C 316.881 723.963 332.989 715.607 341.252 709.9 C 342.692 708.905 344.979 706.976 347.026 706.345 C 347.428 713.329 347.384 722.478 347.433 729.908 Z"/>
    <path fill="#153E03" opacity="1.000000" stroke="none" d="M 262.717 802.442 C 265.657 798.043 268.544 793.899 271.803 790.072 C 275.129 786.166 278.786 782.538 282.365 778.853 C 284.166 776.998 286.176 776.082 288.357 778.393 C 294.934 785.362 301.688 792.378 308.223 799.385 C 308.616 799.806 307.509 805.324 307.34 806.068 C 305.87 811.411 304.592 816.52 302.811 822.612 C 302.403 824.205 302.441 824.024 302.029 825.53 C 302.029 825.53 301.392 826.814 300.817 826.922 C 290.135 827.03 280.027 827.03 269.919 827.03 C 269.814 826.698 269.708 826.366 269.722 825.452 C 269.393 824.211 264.313 808.2 262.717 802.442 Z"/>
    <path fill="#153D02" opacity="1.000000" stroke="none" d="M 301.26 827.878 C 301.377 828.213 301.491 828.591 301.625 829.687 C 301.706 830.747 309.733 884.042 313.19 908.536 C 316.182 929.738 319.151 950.944 322.065 972.574 C 297.979 973 273.958 973 249.469 973 C 251.065 958.218 253.123 943.436 255.198 928.656 C 258.172 907.472 261.159 886.291 264.137 865.108 C 265.13 858.045 267.906 840.069 268.346 837.773 C 268.758 835.624 269.523 830.943 269.641 829.519 C 269.637 829.158 269.633 828.797 270.228 828.199 C 280.972 827.934 291.116 827.906 301.26 827.878 Z"/>
    <path fill="#B7FF98" opacity="1.000000" stroke="none" d="M 401.468 777.818 C 418.557 784.167 435.644 790.521 452.736 796.862 C 468.29 802.632 483.903 808.248 499.395 814.181 C 522.278 822.945 539.229 838.107 548.853 860.954 C 553.814 872.733 555.304 885.12 556.194 897.782 C 557.518 916.638 559.753 935.43 561.545 954.254 C 562.112 960.202 562.505 966.166 562.989 972.562 C 482.979 973 402.958 973 322.534 972.574 C 319.151 950.944 316.182 929.738 313.19 908.536 C 309.733 884.042 302.006 832.791 301.786 831.909 C 301.56 831 301.77 830.108 301.555 829.147 C 301.494 828.547 301.377 828.213 301.319 827.677 C 301.378 827.476 301.212 827.09 301.302 826.952 C 301.392 826.814 301.354 826.486 301.626 826.286 C 302.197 825.038 302.497 823.991 302.886 822.565 C 304.43 816.814 305.538 811.441 307.324 805.974 C 308.415 802.442 307.057 798.561 307.539 798.247 C 309.311 799.414 312.48 804.019 313.72 805.301 C 320.291 812.097 326.835 818.921 333.272 825.844 C 335.701 828.457 337.604 828.416 340.428 826.145 C 351.897 816.925 363.605 808.003 375.16 798.888 C 383.981 791.93 392.703 784.846 401.468 777.818 Z"/>
    <path fill="#FEDDCE" opacity="1.000000" stroke="none" d="M 411.291 620.08 C 408.142 619.277 404.992 618.474 401.482 617.579 C 400.66 624.803 400.265 631.682 399.673 639.242 C 399.009 647.728 398.638 656.832 393.35 664.312 C 389.746 669.409 386.618 672.425 381.398 677.47 C 372.202 686.357 360.196 696.344 349.275 704.908 C 348.408 705.587 342.544 709.027 341.115 710.038 C 329.549 718.223 316.881 723.963 303.465 728.481 C 293.993 731.671 284.44 731.971 275.035 730.312 C 260.747 727.793 247.818 721.336 235.382 713.949 C 231.756 711.796 227.902 710.028 224.153 708.084 C 220.181 704.754 216.177 701.464 212.246 698.087 C 203.23 690.345 194.059 682.769 185.314 674.731 C 177.586 667.629 173.992 658.377 172.97 647.978 C 172.13 639.431 170.968 630.913 169.843 622.397 C 169.655 620.975 168.924 619.624 168.247 617.672 C 161.159 621.173 154.435 620.569 148.603 615.681 C 142.818 610.831 139.046 604.634 136.877 597.234 C 134.105 587.779 132.955 578.663 136.335 568.995 C 139.129 561 143.283 554.938 152.247 552.245 C 168.124 554.906 167.184 556.92 167.162 568.096 C 167.16 569.428 167.244 570.76 167.3 572.091 C 167.637 580.145 168.668 580.88 176.688 578.776 C 177.212 571.981 177.629 565.169 178.29 558.38 C 179.143 549.619 179.055 540.557 181.402 532.194 C 185.874 516.258 192.237 500.861 196.968 484.987 C 201.604 469.432 205.403 453.614 209.108 437.804 C 210.352 432.495 210.179 426.855 210.707 420.751 C 212.369 422.671 213.497 424.086 214.739 425.391 C 226.29 437.528 240.077 446.495 254.692 454.536 C 280.296 468.623 307.668 477.833 335.803 484.993 C 349.961 488.596 364.325 491.379 378.544 494.752 C 379.868 495.065 381.63 496.846 381.814 498.142 C 384.349 515.93 386.629 533.754 388.999 551.566 C 390.225 560.776 391.504 569.979 392.769 579.253 C 397.2 579.253 401.103 579.253 404.839 579.253 C 405.162 578.652 405.424 578.376 405.455 578.076 C 406.083 571.951 406.93 565.836 407.21 559.694 C 407.407 555.365 409.25 553.039 413.902 552.538 C 424.572 551.666 430.285 557.857 433.48 566.043 C 437.934 577.456 437.393 588.791 433.156 600.09 C 429.271 610.451 423.113 618.376 411.291 620.08 Z"/>
</svg>