<svg width="394.3811767578125px" height="210.79999999999998px" xmlns="http://www.w3.org/2000/svg" viewBox="52.809411621093744 -30.39999999999999 394.3811767578125 210.79999999999998" style="background: rgba(0, 0, 0, 0);" preserveAspectRatio="xMidYMid"><defs><filter id="editing-vr"><feFlood flood-color="#f00" flood-opacity="0.7" result="c1"></feFlood><feFlood flood-color="#00f" flood-opacity="0.7" result="c3"></feFlood><feComposite operator="in" in="c1" in2="SourceAlpha" result="text-c1"></feComposite><feComposite operator="in" in="c3" in2="SourceAlpha" result="text-c3"></feComposite><feOffset in="text-c1" dx="5" dy="-1" result="text1"></feOffset><feOffset in="text-c3" dx="-5" dy="1" result="text3"></feOffset><feBlend in="SourceGraphic" in2="text1" mode="multiply" result="text4"></feBlend><feBlend in="text4" in2="text3" mode="multiply"></feBlend></filter></defs><g filter="url(#editing-vr)"><g transform="translate(113.739990234375, 126.88499975204468)"><path d="M36.36 0.64L36.36 0.64Q25.33 0.64 19.03-2.28L19.03-2.28L19.03-2.28Q12.72-5.19 9.49-13.62L9.49-13.62L9.49-13.62Q6.25-22.05 6.25-38.69L6.25-38.69L6.25-38.69Q6.25-55.23 9.59-63.86L9.59-63.86L9.59-63.86Q12.93-72.50 19.29-75.58L19.29-75.58L19.29-75.58Q25.65-78.65 36.36-78.65L36.36-78.65L36.36-78.65Q47.38-78.65 53.74-75.63L53.74-75.63L53.74-75.63Q60.10-72.61 63.28-63.97L63.28-63.97L63.28-63.97Q66.46-55.33 66.46-38.69L66.46-38.69L66.46-38.69Q66.46-22.05 63.23-13.62L63.23-13.62L63.23-13.62Q60.00-5.19 53.69-2.28L53.69-2.28L53.69-2.28Q47.38 0.64 36.36 0.64L36.36 0.64ZM36.36-6.89L36.36-6.89Q44.84-6.89 49.34-9.22L49.34-9.22L49.34-9.22Q53.85-11.55 55.97-18.34L55.97-18.34L55.97-18.34Q58.09-25.12 58.09-38.69L58.09-38.69L58.09-38.69Q58.09-52.79 55.97-59.68L55.97-59.68L55.97-59.68Q53.85-66.57 49.34-68.85L49.34-68.85L49.34-68.85Q44.84-71.13 36.36-71.13L36.36-71.13L36.36-71.13Q28.30-71.13 23.74-68.85L23.74-68.85L23.74-68.85Q19.19-66.57 16.91-59.57L16.91-59.57L16.91-59.57Q14.63-52.58 14.63-38.69L14.63-38.69L14.63-38.69Q14.63-25.02 16.64-18.29L16.64-18.29L16.64-18.29Q18.66-11.55 23.16-9.22L23.16-9.22L23.16-9.22Q27.67-6.89 36.36-6.89L36.36-6.89ZM103.24 0.64L103.24 0.64Q94.55 0.64 89.25-1.80L89.25-1.80L89.25-1.80Q83.95-4.24 81.35-10.55L81.35-10.55L81.35-10.55Q78.76-16.85 78.76-28.41L78.76-28.41L78.76-28.41Q78.76-40.07 81.41-46.38L81.41-46.38L81.41-46.38Q84.06-52.68 89.25-55.01L89.25-55.01L89.25-55.01Q94.45-57.35 103.24-57.35L103.24-57.35L103.24-57.35Q111.94-57.35 117.24-54.96L117.24-54.96L117.24-54.96Q122.54-52.58 125.19-46.27L125.19-46.27L125.19-46.27Q127.84-39.96 127.84-28.41L127.84-28.41L127.84-28.41Q127.84-16.85 125.19-10.55L125.19-10.55L125.19-10.55Q122.54-4.24 117.29-1.80L117.29-1.80L117.29-1.80Q112.04 0.64 103.24 0.64L103.24 0.64ZM103.24-6.25L103.24-6.25Q109.07-6.25 112.41-7.79L112.41-7.79L112.41-7.79Q115.75-9.33 117.55-14.10L117.55-14.10L117.55-14.10Q119.36-18.87 119.36-28.41L119.36-28.41L119.36-28.41Q119.36-37.95 117.61-42.66L117.61-42.66L117.61-42.66Q115.86-47.38 112.47-48.92L112.47-48.92L112.47-48.92Q109.07-50.46 103.24-50.46L103.24-50.46L103.24-50.46Q97.31-50.46 93.97-48.92L93.97-48.92L93.97-48.92Q90.63-47.38 88.88-42.66L88.88-42.66L88.88-42.66Q87.13-37.95 87.13-28.41L87.13-28.41L87.13-28.41Q87.13-18.87 88.88-14.10L88.88-14.10L88.88-14.10Q90.63-9.33 93.97-7.79L93.97-7.79L93.97-7.79Q97.31-6.25 103.24-6.25L103.24-6.25ZM141.93 25.12L141.93-56.60L148.72-56.60L150.31-50.77L150.31-50.77Q153.70-53.21 158.89-55.28L158.89-55.28L158.89-55.28Q164.09-57.35 168.86-57.35L168.86-57.35L168.86-57.35Q179.25-57.35 184.17-49.18L184.17-49.18L184.17-49.18Q189.10-41.02 189.10-28.41L189.10-28.41L189.10-28.41Q189.10-13.89 184.17-6.57L184.17-6.57L184.17-6.57Q179.25 0.74 168.86 0.74L168.86 0.74L168.86 0.74Q164.30 0.74 159.48-0.74L159.48-0.74L159.48-0.74Q154.65-2.23 150.31-4.66L150.31-4.66L150.31 25.12L141.93 25.12ZM166.53-6.36L166.53-6.36Q180.73-6.36 180.73-28.41L180.73-28.41L180.73-28.41Q180.73-39.54 176.70-44.94L176.70-44.94L176.70-44.94Q172.67-50.35 166.53-50.35L166.53-50.35L166.53-50.35Q162.07-50.35 158.15-49.02L158.15-49.02L158.15-49.02Q154.23-47.70 150.31-45.58L150.31-45.58L150.31-10.92L150.31-10.92Q158.36-6.36 166.53-6.36L166.53-6.36ZM222.71 0.64L222.71 0.64Q217.94 0.64 210.73 0.21L210.73 0.21L210.73 0.21Q203.52-0.21 200.87-0.85L200.87-0.85L200.87-5.94L224.08-5.94L224.08-5.94Q230.02-5.94 232.78-7.53L232.78-7.53L232.78-7.53Q235.53-9.12 235.53-14.20L235.53-14.20L235.53-16.75L235.53-16.75Q235.53-24.70 225.25-24.70L225.25-24.70L217.30-24.70L217.30-24.70Q209.14-24.70 204.74-27.88L204.74-27.88L204.74-27.88Q200.34-31.06 200.34-38.69L200.34-38.69L200.34-41.66L200.34-41.66Q200.34-49.71 205.06-53.42L205.06-53.42L205.06-53.42Q209.77-57.13 220.27-57.13L220.27-57.13L220.27-57.13Q224.83-57.13 231.03-56.66L231.03-56.66L231.03-56.66Q237.23-56.18 240.73-55.54L240.73-55.54L240.73-50.46L218.89-50.46L218.89-50.46Q213.17-50.46 210.41-48.55L210.41-48.55L210.41-48.55Q207.65-46.64 207.65-41.66L207.65-41.66L207.65-39.33L207.65-39.33Q207.65-34.77 210.36-33.23L210.36-33.23L210.36-33.23Q213.06-31.69 218.68-31.69L218.68-31.69L226.73-31.69L226.73-31.69Q234.47-31.69 238.71-28.09L238.71-28.09L238.71-28.09Q242.95-24.49 242.95-17.70L242.95-17.70L242.95-13.78L242.95-13.78Q242.95-5.72 237.76-2.54L237.76-2.54L237.76-2.54Q232.56 0.64 222.71 0.64L222.71 0.64ZM258.96-21.09L257.90-77.91L266.27-77.91L265-21.09L258.96-21.09ZM259.59 0.11L259.59 0.11Q258.85 0.11 258.38-0.37L258.38-0.37L258.38-0.37Q257.90-0.85 257.90-1.59L257.90-1.59L257.90-10.07L257.90-10.07Q257.90-11.77 259.59-11.77L259.59-11.77L264.26-11.77L264.26-11.77Q265.95-11.77 265.95-10.07L265.95-10.07L265.95-1.59L265.95-1.59Q265.95 0.11 264.26 0.11L264.26 0.11L259.59 0.11Z" fill="#444"></path></g></g><style>text {
  font-size: 64px;
  font-family: Arial Black;
  dominant-baseline: central;
  text-anchor: middle;
}</style></svg>